<svg width="100" height="100" viewBox="0 0 100 100" fill="none" xmlns="http://www.w3.org/2000/svg">
<g clip-path="url(#clip0_3099_4103)">
<path fill-rule="evenodd" clip-rule="evenodd" d="M63.8893 29.2132C59.778 26.4662 54.9445 25 50 25V0C59.889 0 69.556 2.93245 77.7785 8.42652C86.001 13.9206 92.4095 21.7295 96.194 30.8658C99.9783 40.002 100.968 50.0555 99.0392 59.7545C97.11 69.4535 92.348 78.3628 85.3553 85.3553C78.3628 92.348 69.4535 97.11 59.7545 99.0392C50.0555 100.968 40.002 99.9783 30.8658 96.194C21.7295 92.4095 13.9206 86.001 8.42652 77.7785C2.93245 69.556 0 59.889 0 50H25C25 54.9445 26.4662 59.778 29.2132 63.8893C31.9602 68.0005 35.8648 71.2048 40.433 73.097C45.001 74.9893 50.0277 75.4843 54.8772 74.5195C59.7267 73.555 64.1813 71.174 67.6778 67.6778C71.174 64.1813 73.555 59.7267 74.5195 54.8772C75.4843 50.0277 74.9893 45.001 73.097 40.433C71.2048 35.8648 68.0005 31.9602 63.8893 29.2132Z" fill="#FFD338"/>
<path fill-rule="evenodd" clip-rule="evenodd" d="M25 1.08281e-05C25 3.28306 24.3534 6.53396 23.097 9.56708C21.8406 12.6002 19.9991 15.3562 17.6777 17.6777C15.3562 19.9992 12.6002 21.8406 9.56709 23.097C6.53394 24.3534 3.28304 25 1.09277e-06 25L0 50C6.56609 50 13.0679 48.7068 19.1342 46.194C25.2005 43.6813 30.7125 39.9983 35.3552 35.3553C39.9982 30.7125 43.6812 25.2005 46.194 19.1342C48.7067 13.0679 50 6.56608 50 0L25 1.08281e-05Z" fill="#FFD338"/>
</g>
<defs>
<clipPath id="clip0_3099_4103">
<rect width="100" height="100" fill="white"/>
</clipPath>
</defs>
</svg>
