<svg width="103" height="100" viewBox="0 0 103 100" fill="none" xmlns="http://www.w3.org/2000/svg">
<path d="M51.0415 26.5625C51.0415 39.5067 40.5482 50 27.604 50H4.1665V26.5625C4.1665 13.6183 14.6598 3.125 27.604 3.125C40.5482 3.125 51.0415 13.6183 51.0415 26.5625Z" fill="#141414"/>
<path d="M51.0415 73.4375C51.0415 60.4933 61.5348 50 74.479 50H97.9165V73.4375C97.9165 86.3817 87.4232 96.875 74.479 96.875C61.5348 96.875 51.0415 86.3817 51.0415 73.4375Z" fill="#141414"/>
<path d="M4.1665 73.4375C4.1665 86.3817 14.6598 96.875 27.604 96.875H51.0415V73.4375C51.0415 60.4933 40.5482 50 27.604 50C14.6598 50 4.1665 60.4933 4.1665 73.4375Z" fill="#141414"/>
<path d="M97.9165 26.5625C97.9165 13.6183 87.4232 3.125 74.479 3.125H51.0415V26.5625C51.0415 39.5067 61.5348 50 74.479 50C87.4232 50 97.9165 39.5067 97.9165 26.5625Z" fill="#141414"/>
</svg>
