<svg width="98" height="100" viewBox="0 0 98 100" fill="none" xmlns="http://www.w3.org/2000/svg">
<g clip-path="url(#clip0_3099_4101)">
<path fill-rule="evenodd" clip-rule="evenodd" d="M33.4502 1.25879C27.9468 1.25879 22.669 3.44498 18.7776 7.33642L0 26.1139V34.709C0 40.7814 2.60839 46.2446 6.76588 50.0392C2.60839 53.8339 0 59.2971 0 65.3695V73.9646L18.7776 92.7422C22.669 96.6336 27.9468 98.8197 33.4502 98.8197C39.5227 98.8197 44.9859 96.2114 48.7805 92.0539C52.5751 96.2114 58.0383 98.8197 64.1107 98.8197C69.6141 98.8197 74.892 96.6336 78.7834 92.7422L97.561 73.9646V65.3695C97.561 59.2971 94.9527 53.8339 90.7951 50.0392C94.9527 46.2446 97.561 40.7814 97.561 34.709V26.1139L78.7834 7.33642C74.892 3.44498 69.6141 1.25879 64.1107 1.25879C58.0383 1.25879 52.5751 3.86717 48.7805 8.02466C44.9859 3.86717 39.5227 1.25879 33.4502 1.25879ZM62.8263 50.0392C62.5924 49.8258 62.3629 49.6066 62.1381 49.3817L48.7805 36.0241L35.4229 49.3817C35.198 49.6066 34.9685 49.8258 34.7346 50.0392C34.9685 50.2527 35.198 50.4719 35.4229 50.6968L48.7805 64.0544L62.1381 50.6968C62.3629 50.4719 62.5924 50.2527 62.8263 50.0392ZM54.2005 73.9646V78.0695C54.2005 83.5427 58.6376 87.9797 64.1107 87.9797C66.739 87.9797 69.2598 86.9356 71.1183 85.077L86.721 69.4744V65.3695C86.721 59.8963 82.2839 55.4592 76.8107 55.4592C74.1824 55.4592 71.6617 56.5034 69.8032 58.3619L54.2005 73.9646ZM43.3605 73.9646L27.7578 58.3619C25.8993 56.5034 23.3786 55.4592 20.7503 55.4592C15.277 55.4592 10.8401 59.8963 10.8401 65.3695V69.4744L26.4427 85.077C28.3012 86.9356 30.822 87.9797 33.4502 87.9797C38.9234 87.9797 43.3605 83.5427 43.3605 78.0695V73.9646ZM43.3605 22.0091V26.1139L27.7578 41.7166C25.8993 43.5751 23.3786 44.6192 20.7503 44.6192C15.277 44.6192 10.8401 40.1822 10.8401 34.709V30.6041L26.4427 15.0015C28.3012 13.143 30.822 12.0989 33.4502 12.0989C38.9234 12.0989 43.3605 16.5358 43.3605 22.0091ZM69.8032 41.7166L54.2005 26.1139V22.0091C54.2005 16.5358 58.6376 12.0989 64.1107 12.0989C66.739 12.0989 69.2598 13.143 71.1183 15.0015L86.721 30.6041V34.709C86.721 40.1822 82.2839 44.6192 76.8107 44.6192C74.1824 44.6192 71.6617 43.5751 69.8032 41.7166Z" fill="#FF540B"/>
</g>
<defs>
<clipPath id="clip0_3099_4101">
<rect width="97.561" height="100" fill="white"/>
</clipPath>
</defs>
</svg>
