<svg width="128" height="128" viewBox="0 0 128 128" fill="none" xmlns="http://www.w3.org/2000/svg">
<path d="M77.3761 17.344C72.2241 11.9771 54.4504 12.0091 52.6675 29.4354C50.8847 46.8617 74.2538 66.2674 81.3807 68.8411C88.5075 71.4149 116.512 45.12 116.572 32.2286C116.631 19.3371 106.597 13.9017 96.0367 17.376C85.4767 20.8503 83.9589 24.2011 77.3761 17.344Z" fill="#FF3838"/>
<path d="M84.5716 73.1429C84.2557 73.1423 83.9433 73.0767 83.6538 72.9501C83.3644 72.8234 83.1042 72.6385 82.8894 72.4069L55.5979 42.784C48.5442 35.1223 48.5442 22.6606 55.5979 14.9943C59.0768 11.2183 63.7122 9.14285 68.6539 9.14285C73.5956 9.14285 78.2311 11.2183 81.7054 14.9897L84.5716 18.1029L87.4379 14.9897C90.9168 11.2183 95.5476 9.14285 100.489 9.14285C105.431 9.14285 110.066 11.2183 113.541 14.9897C120.594 22.656 120.594 35.1177 113.541 42.7794L86.2494 72.4023C86.0365 72.6355 85.7774 72.8219 85.4885 72.9494C85.1997 73.0769 84.8874 73.1428 84.5716 73.1429ZM68.6539 13.7143C65.0059 13.7143 61.5636 15.2686 58.9671 18.0891C53.4814 24.0457 53.4814 33.7326 58.9671 39.6846L84.5762 67.4834L110.185 39.6846C115.671 33.7326 115.671 24.0457 110.185 18.0891C108.949 16.755 107.45 15.6907 105.784 14.9628C104.117 14.235 102.317 13.8592 100.498 13.8592C98.6796 13.8592 96.8803 14.235 95.2134 14.9628C93.5465 15.6907 92.048 16.755 90.8116 18.0891L86.2631 23.0263C86.0432 23.2491 85.7813 23.426 85.4925 23.5467C85.2037 23.6675 84.8938 23.7297 84.5808 23.7297C84.2678 23.7297 83.9579 23.6675 83.6691 23.5467C83.3803 23.426 83.1184 23.2491 82.8985 23.0263L78.3499 18.0891C75.7396 15.2686 72.2974 13.7143 68.6539 13.7143ZM25.1431 109.714H11.4288C10.8226 109.714 10.2412 109.473 9.81254 109.045C9.38388 108.616 9.14307 108.035 9.14307 107.429V66.2857C9.14307 65.6795 9.38388 65.0981 9.81254 64.6695C10.2412 64.2408 10.8226 64 11.4288 64C26.9762 64 35.1911 69.2389 35.5339 69.4629C35.933 69.7237 36.2406 70.1027 36.4135 70.547C36.5865 70.9913 36.6162 71.4786 36.4985 71.9406L27.3556 107.991C27.2321 108.484 26.9472 108.921 26.5463 109.234C26.1453 109.546 25.6513 109.715 25.1431 109.714ZM13.7145 105.143H23.3648L31.6299 72.5486C29.0608 71.3143 22.9991 68.9554 13.7145 68.6126V105.143Z" fill="#131F18"/>
<path d="M68.5716 118.857C57.783 118.857 36.9236 109.787 25.4493 104.375C25.1669 104.254 24.9118 104.078 24.6991 103.856C24.4864 103.634 24.3206 103.372 24.2115 103.085C24.1025 102.798 24.0523 102.492 24.0642 102.185C24.0761 101.878 24.1497 101.577 24.2806 101.299C24.4115 101.021 24.5971 100.773 24.8262 100.568C25.0553 100.364 25.3233 100.207 25.6142 100.109C25.905 100.01 26.2128 99.9711 26.519 99.994C26.8253 100.017 27.1238 100.101 27.3967 100.242C36.3567 104.466 58.3041 114.286 68.5716 114.286C79.6939 114.286 105.897 101.225 113.436 97.344C112.247 95.7897 109.792 93.7143 105.143 93.7143C100.924 93.7143 95.575 95.4011 90.4001 97.0377C84.9007 98.7703 79.2093 100.571 74.2859 100.571C64.8504 100.571 52.3156 96.0548 51.7899 95.8628C51.5077 95.7602 51.2485 95.603 51.0271 95.4002C50.8057 95.1973 50.6265 94.9529 50.4995 94.6808C50.3726 94.4087 50.3005 94.1143 50.2874 93.8143C50.2743 93.5143 50.3203 93.2147 50.423 92.9326C50.5256 92.6504 50.6829 92.3912 50.8857 92.1698C51.0885 91.9485 51.3329 91.7692 51.6051 91.6423C51.8772 91.5153 52.1716 91.4432 52.4716 91.4301C52.7715 91.417 53.0711 91.4631 53.3533 91.5657C53.4721 91.6114 65.6596 96 74.2859 96C78.5053 96 83.8539 94.3131 89.0287 92.6766C94.5281 90.944 100.22 89.1429 105.143 89.1429C115.813 89.1429 118.624 97.2206 118.743 97.5634C118.913 98.0761 118.896 98.6322 118.696 99.1339C118.497 99.6356 118.126 100.051 117.65 100.306C116.229 101.056 82.6973 118.857 68.5716 118.857Z" fill="#131F18"/>
<path d="M84.5715 98.6972C83.9653 98.6972 83.3839 98.4563 82.9552 98.0277C82.5266 97.599 82.2858 97.0177 82.2858 96.4114V94.1257C82.2968 92.59 81.7851 91.0963 80.8346 89.89C79.8842 88.6837 78.5517 87.8366 77.0561 87.488L32.928 76.832C32.636 76.7615 32.3607 76.6341 32.1178 76.4572C31.875 76.2802 31.6694 76.0572 31.5128 75.8008C31.3561 75.5444 31.2515 75.2597 31.2049 74.9628C31.1583 74.666 31.1707 74.3629 31.2412 74.0709C31.3117 73.7788 31.4391 73.5035 31.616 73.2607C31.793 73.0178 32.016 72.8122 32.2724 72.6556C32.5288 72.499 32.8135 72.3943 33.1104 72.3478C33.4072 72.3012 33.7103 72.3135 34.0023 72.384L78.112 83.0354C80.6106 83.6197 82.8367 85.0352 84.4255 87.0501C86.0144 89.065 86.8718 91.5598 86.8572 94.1257V96.4114C86.8572 97.0177 86.6164 97.599 86.1877 98.0277C85.7591 98.4563 85.1777 98.6972 84.5715 98.6972Z" fill="#131F18"/>
</svg>
