<svg xmlns="http://www.w3.org/2000/svg" xmlns:xlink="http://www.w3.org/1999/xlink" width="500" zoomAndPan="magnify" viewBox="0 0 375 374.999991" height="500" preserveAspectRatio="xMidYMid meet" version="1.0"><defs><g/></defs><g fill="#000000" fill-opacity="1"><g transform="translate(48.825235, 295.529186)"><g><path d="M 9.453125 -26.484375 C 11.234375 -26.484375 12.769531 -26.175781 14.0625 -25.5625 C 15.351562 -24.957031 16.328125 -24.125 16.984375 -23.0625 C 17.640625 -22 17.96875 -20.785156 17.96875 -19.421875 C 17.96875 -18.328125 17.742188 -17.375 17.296875 -16.5625 C 16.859375 -15.75 16.113281 -14.925781 15.0625 -14.09375 C 16.445312 -13.519531 17.523438 -12.648438 18.296875 -11.484375 C 19.078125 -10.316406 19.46875 -9.015625 19.46875 -7.578125 C 19.46875 -5.367188 18.734375 -3.550781 17.265625 -2.125 C 15.796875 -0.707031 13.546875 0 10.515625 0 L 2.640625 0 L 2.640625 -26.484375 Z M 15.3125 -19.53125 C 15.3125 -20.820312 14.828125 -21.898438 13.859375 -22.765625 C 12.898438 -23.640625 11.367188 -24.078125 9.265625 -24.078125 L 5.296875 -24.078125 L 5.296875 -15.0625 L 9.484375 -15.0625 C 11.554688 -15.0625 13.046875 -15.503906 13.953125 -16.390625 C 14.859375 -17.273438 15.3125 -18.320312 15.3125 -19.53125 Z M 16.8125 -7.578125 C 16.8125 -9.085938 16.210938 -10.3125 15.015625 -11.25 C 13.828125 -12.195312 12.257812 -12.671875 10.3125 -12.671875 L 5.296875 -12.671875 L 5.296875 -2.390625 L 10.3125 -2.390625 C 12.1875 -2.390625 13.738281 -2.804688 14.96875 -3.640625 C 16.195312 -4.484375 16.8125 -5.796875 16.8125 -7.578125 Z M 16.8125 -7.578125 "/></g></g></g><g fill="#000000" fill-opacity="1"><g transform="translate(73.547396, 295.529186)"><g><path d="M 17 -26.484375 L 17 -24.078125 L 5.15625 -24.078125 L 5.15625 -14.5625 L 16.609375 -14.5625 L 16.609375 -12.171875 L 5.15625 -12.171875 L 5.15625 -2.390625 L 17 -2.390625 L 17 0 L 2.5 0 L 2.5 -26.484375 Z M 17 -26.484375 "/></g></g></g><g fill="#000000" fill-opacity="1"><g transform="translate(96.910192, 295.529186)"><g><path d="M 0.21875 -24.078125 L 0.21875 -26.484375 L 15 -26.484375 L 15 -24.078125 L 8.9375 -24.078125 L 8.9375 0 L 6.296875 0 L 6.296875 -24.078125 Z M 0.21875 -24.078125 "/></g></g></g><g fill="#000000" fill-opacity="1"><g transform="translate(116.33792, 295.529186)"><g><path d="M 0.21875 -24.078125 L 0.21875 -26.484375 L 15 -26.484375 L 15 -24.078125 L 8.9375 -24.078125 L 8.9375 0 L 6.296875 0 L 6.296875 -24.078125 Z M 0.21875 -24.078125 "/></g></g></g><g fill="#000000" fill-opacity="1"><g transform="translate(135.765645, 295.529186)"><g><path d="M 17 -26.484375 L 17 -24.078125 L 5.15625 -24.078125 L 5.15625 -14.5625 L 16.609375 -14.5625 L 16.609375 -12.171875 L 5.15625 -12.171875 L 5.15625 -2.390625 L 17 -2.390625 L 17 0 L 2.5 0 L 2.5 -26.484375 Z M 17 -26.484375 "/></g></g></g><g fill="#000000" fill-opacity="1"><g transform="translate(159.128439, 295.529186)"><g><path d="M 10.34375 -11.984375 C 12.65625 -11.984375 14.476562 -12.523438 15.8125 -13.609375 C 17.144531 -14.703125 17.8125 -16.164062 17.8125 -18 C 17.8125 -18.976562 17.578125 -19.921875 17.109375 -20.828125 C 16.648438 -21.734375 15.851562 -22.5 14.71875 -23.125 C 13.59375 -23.757812 12.085938 -24.078125 10.203125 -24.078125 L 5.15625 -24.078125 L 5.15625 0 L 2.5 0 L 2.5 -26.484375 L 10.484375 -26.484375 C 12.679688 -26.484375 14.53125 -26.09375 16.03125 -25.3125 C 17.53125 -24.539062 18.644531 -23.503906 19.375 -22.203125 C 20.101562 -20.898438 20.46875 -19.472656 20.46875 -17.921875 C 20.46875 -16.515625 20.132812 -15.210938 19.46875 -14.015625 C 18.800781 -12.828125 17.867188 -11.867188 16.671875 -11.140625 C 15.484375 -10.410156 14.125 -9.988281 12.59375 -9.875 L 20.078125 0 L 16.75 0 L 7.765625 -11.984375 Z M 10.34375 -11.984375 "/></g></g></g><g fill="#000000" fill-opacity="1"><g transform="translate(130.541181, 252.3627)"><g><path d="M 6.78125 -193.21875 L 6.5 -193.21875 C 6.5 -194.664062 6.992188 -195.796875 7.984375 -196.609375 C 8.984375 -197.421875 10.113281 -197.828125 11.375 -197.828125 L 49.859375 -197.828125 C 56.722656 -197.828125 63.09375 -196.515625 68.96875 -193.890625 C 74.84375 -191.273438 80.035156 -187.710938 84.546875 -183.203125 C 88.890625 -178.679688 92.320312 -173.347656 94.84375 -167.203125 C 97.375 -161.066406 98.640625 -154.472656 98.640625 -147.421875 C 98.640625 -133.515625 94.484375 -121.863281 86.171875 -112.46875 C 84.546875 -110.300781 82.738281 -108.445312 80.75 -106.90625 C 78.769531 -105.375 76.601562 -103.882812 74.25 -102.4375 C 80.757812 -99.550781 86.363281 -95.664062 91.0625 -90.78125 C 101.71875 -80.488281 107.046875 -67.84375 107.046875 -52.84375 C 107.046875 -45.613281 105.644531 -38.789062 102.84375 -32.375 C 100.039062 -25.96875 96.289062 -20.328125 91.59375 -15.453125 C 86.894531 -10.566406 81.382812 -6.722656 75.0625 -3.921875 C 68.738281 -1.128906 61.875 0.265625 54.46875 0.265625 L 11.375 0.265625 C 10.476562 0.265625 9.394531 -0.179688 8.125 -1.078125 C 7.039062 -2.160156 6.5 -3.425781 6.5 -4.875 Z M 16.265625 -188.34375 L 16.53125 -107.3125 L 53.65625 -107.3125 C 63.957031 -107.3125 72.539062 -111.195312 79.40625 -118.96875 C 82.476562 -122.945312 84.914062 -127.375 86.71875 -132.25 C 88.53125 -137.125 89.4375 -142.363281 89.4375 -147.96875 C 89.4375 -153.5625 88.394531 -158.796875 86.3125 -163.671875 C 84.238281 -168.554688 81.394531 -172.804688 77.78125 -176.421875 C 74.34375 -180.035156 70.1875 -182.925781 65.3125 -185.09375 C 60.4375 -187.257812 55.285156 -188.34375 49.859375 -188.34375 Z M 53.65625 -97.828125 L 16.53125 -98.109375 C 16.53125 -87.085938 16.484375 -76.472656 16.390625 -66.265625 C 16.304688 -56.054688 16.265625 -46.976562 16.265625 -39.03125 L 16.265625 -9.75 L 54.46875 -9.75 C 60.425781 -9.75 66.023438 -10.878906 71.265625 -13.140625 C 76.503906 -15.398438 81.113281 -18.519531 85.09375 -22.5 C 89.070312 -26.644531 92.1875 -31.335938 94.4375 -36.578125 C 96.695312 -41.816406 97.828125 -47.421875 97.828125 -53.390625 C 97.828125 -59.523438 96.648438 -65.257812 94.296875 -70.59375 C 91.953125 -75.925781 88.703125 -80.578125 84.546875 -84.546875 C 80.578125 -88.703125 75.925781 -91.953125 70.59375 -94.296875 C 65.257812 -96.648438 59.613281 -97.828125 53.65625 -97.828125 Z M 53.65625 -97.828125 "/></g></g></g><path stroke-linecap="butt" transform="matrix(3.4435, 0, 0, 3.4435, 108.724121, -20.650831)" fill="none" stroke-linejoin="miter" d="M 36.910154 14.704578 L 36.910154 17.452055 L 20.84728 17.452055 L 20.770142 72.000034 L 18.022664 72.000034 L 18.022664 17.452055 L 1.882652 17.452055 L 1.882652 14.704578 Z M 36.910154 14.704578 " stroke="#ffffff" stroke-width="4.328835" stroke-opacity="1" stroke-miterlimit="4"/><g fill="#4ede79" fill-opacity="1"><g transform="translate(108.724121, 227.281134)"><g><path d="M 127.09375 -197.28125 L 127.09375 -187.796875 L 71.8125 -187.796875 L 71.546875 0 L 62.0625 0 L 62.0625 -187.796875 L 6.5 -187.796875 L 6.5 -197.28125 Z M 127.09375 -197.28125 "/></g></g></g><g fill="#4ede79" fill-opacity="1"><g transform="translate(198.257626, 295.529186)"><g><path d="M 0.21875 -24.078125 L 0.21875 -26.484375 L 15 -26.484375 L 15 -24.078125 L 8.9375 -24.078125 L 8.9375 0 L 6.296875 0 L 6.296875 -24.078125 Z M 0.21875 -24.078125 "/></g></g></g><g fill="#4ede79" fill-opacity="1"><g transform="translate(217.685352, 295.529186)"><g><path d="M 7.046875 -8.90625 L 3.1875 0 L 0.421875 0 L 11.734375 -26.484375 L 14.703125 -26.484375 L 26.078125 0 L 23.1875 0 L 19.359375 -8.90625 Z M 18.3125 -11.3125 L 13.234375 -23.46875 L 8.046875 -11.3125 Z M 18.3125 -11.3125 "/></g></g></g><g fill="#4ede79" fill-opacity="1"><g transform="translate(248.345872, 295.529186)"><g><path d="M 5.578125 -26.484375 L 5.578125 -2.390625 L 16.53125 -2.390625 L 16.53125 0 L 2.9375 0 L 2.9375 -26.484375 Z M 5.578125 -26.484375 "/></g></g></g><g fill="#4ede79" fill-opacity="1"><g transform="translate(269.061437, 295.529186)"><g><path d="M 17 -26.484375 L 17 -24.078125 L 5.15625 -24.078125 L 5.15625 -14.5625 L 16.609375 -14.5625 L 16.609375 -12.171875 L 5.15625 -12.171875 L 5.15625 -2.390625 L 17 -2.390625 L 17 0 L 2.5 0 L 2.5 -26.484375 Z M 17 -26.484375 "/></g></g></g><g fill="#4ede79" fill-opacity="1"><g transform="translate(292.424231, 295.529186)"><g><path d="M 5.328125 -23.296875 L 5.328125 0 L 2.6875 0 L 2.6875 -26.484375 L 6.265625 -26.484375 L 21.046875 -4.515625 L 21.109375 -4.515625 L 21.109375 -26.484375 L 23.765625 -26.484375 L 23.765625 0 L 21.109375 0 L 5.40625 -23.296875 Z M 5.328125 -23.296875 "/></g></g></g><g fill="#4ede79" fill-opacity="1"><g transform="translate(323.084745, 295.529186)"><g><path d="M 0.21875 -24.078125 L 0.21875 -26.484375 L 15 -26.484375 L 15 -24.078125 L 8.9375 -24.078125 L 8.9375 0 L 6.296875 0 L 6.296875 -24.078125 Z M 0.21875 -24.078125 "/></g></g></g></svg>